<?xml version="1.0" encoding="UTF-8" standalone="no"?>
<!-- Created with Inkscape (http://www.inkscape.org/) -->

<svg
   xmlns:dc="http://purl.org/dc/elements/1.1/"
   xmlns:cc="http://creativecommons.org/ns#"
   xmlns:rdf="http://www.w3.org/1999/02/22-rdf-syntax-ns#"
   xmlns:svg="http://www.w3.org/2000/svg"
   xmlns="http://www.w3.org/2000/svg"
   xmlns:sodipodi="http://sodipodi.sourceforge.net/DTD/sodipodi-0.dtd"
   xmlns:inkscape="http://www.inkscape.org/namespaces/inkscape"
   id="svg3004"
   version="1.1"
   inkscape:version="0.48.4 r9939"
   width="283.825"
   height="118.1875"
   xml:space="preserve"
   sodipodi:docname="jillixlogo-0-133-102.eps"><metadata
     id="metadata3010"><rdf:RDF><cc:Work
         rdf:about=""><dc:format>image/svg+xml</dc:format><dc:type
           rdf:resource="http://purl.org/dc/dcmitype/StillImage" /><dc:title></dc:title></cc:Work></rdf:RDF></metadata><defs
     id="defs3008" /><sodipodi:namedview
     pagecolor="#ffffff"
     bordercolor="#666666"
     borderopacity="1"
     objecttolerance="10"
     gridtolerance="10"
     guidetolerance="10"
     inkscape:pageopacity="0"
     inkscape:pageshadow="2"
     inkscape:window-width="1600"
     inkscape:window-height="876"
     id="namedview3006"
     showgrid="false"
     inkscape:zoom="3.5750839"
     inkscape:cx="141.54187"
     inkscape:cy="62.586761"
     inkscape:window-x="0"
     inkscape:window-y="24"
     inkscape:window-maximized="1"
     inkscape:current-layer="g3012" /><g
     id="g3012"
     inkscape:groupmode="layer"
     inkscape:label="ink_ext_XXXXXX"
     transform="matrix(1.25,0,0,-1.25,0,118.1875)"><g
       id="g3014"
       transform="scale(0.1,0.1)"><path
         d="M 94.1836,0 C 41.7539,0 0,28.1602 0,72.8125 l 0,54.3755 20.3945,0.968 c 75.7266,3.875 113.5975,24.285 113.5975,113.614 l 0,458.281 54.375,0 c 92.242,0 127.192,-52.43 127.192,-123.321 l 0,-342.73 C 315.559,94.1758 242.734,0 94.1836,0"
         style="fill:#3c83cd;fill-opacity:1;fill-rule:nonzero;stroke:none"
         id="path3016" /><path
         d="m 589.379,174.762 c -98.063,0 -174.77,48.547 -174.77,174.769 l 0,350.52 45.637,0 c 104.859,0 138.848,-30.106 138.848,-127.196 l 0,-196.136 c 0,-47.571 22.332,-62.141 73.789,-62.141 l 22.332,0 0,-54.371 c 0,-64.078 -48.547,-85.445 -105.836,-85.445"
         style="fill:#3c83cd;fill-opacity:1;fill-rule:nonzero;stroke:none"
         id="path3018" /><path
         d="m 918.555,174.762 c -98.063,0 -182.535,58.265 -182.535,184.484 l 0,541.785 65.05,0 c 80.594,0 119.426,-36.894 119.426,-127.183 l 0,-387.414 c 0,-47.582 26.215,-62.141 77.672,-62.141 l 40.782,0 0,-64.086 c 0,-65.059 -62.137,-85.445 -120.395,-85.445"
         style="fill:#3c83cd;fill-opacity:1;fill-rule:nonzero;stroke:none"
         id="path3020" /><path
         d="m 1255.49,174.762 c -98.07,0 -182.53,58.265 -182.53,184.484 l 0,541.785 65.05,0 c 80.59,0 119.43,-36.894 119.43,-127.183 l 0,-387.414 c 0,-47.582 26.21,-62.141 77.67,-62.141 l 40.78,0 0,-64.086 c 0,-65.059 -62.15,-85.445 -120.4,-85.445"
         style="fill:#3c83cd;fill-opacity:1;fill-rule:nonzero;stroke:none"
         id="path3022" /><path
         d="m 1594.36,174.762 c -98.06,0 -174.77,48.547 -174.77,174.769 l 0,350.52 45.63,0 c 104.86,0 138.86,-30.106 138.86,-127.196 l 0,-196.136 c 0,-47.571 22.33,-62.141 73.78,-62.141 l 22.33,0 0,-54.371 c 0,-64.078 -48.54,-85.445 -105.83,-85.445"
         style="fill:#3c83cd;fill-opacity:1;fill-rule:nonzero;stroke:none"
         id="path3024" /><path
         d="m 1507.75,749.023 c -46.93,0 -101.21,54.735 -101.21,105.223 0,50.496 38.41,91.274 85.35,91.274 46.94,0 84.49,-40.778 84.49,-91.274 0,-50.488 -21.69,-105.223 -68.63,-105.223"
         style="fill:#3c83cd;fill-opacity:1;fill-rule:nonzero;stroke:none"
         id="path3026" /><path
         d="m 508.063,749.023 c -46.942,0 -101.208,54.735 -101.208,105.223 0,50.496 38.407,91.274 85.34,91.274 46.946,0 84.489,-40.778 84.489,-91.274 0,-50.488 -21.684,-105.223 -68.621,-105.223"
         style="fill:#3c83cd;fill-opacity:1;fill-rule:nonzero;stroke:none"
         id="path3028" /><path
         d="m 204.875,749.023 c -46.937,0 -101.203,54.735 -101.203,105.223 0,50.496 38.402,91.274 85.344,91.274 46.937,0 84.484,-40.778 84.484,-91.274 0,-50.488 -21.687,-105.223 -68.625,-105.223"
         style="fill:#3c83cd;fill-opacity:1;fill-rule:nonzero;stroke:none"
         id="path3030" /><path
         d="m 2007.32,276.711 c -14.23,20.676 -27.46,42.305 -41.69,62.977 -50.52,-52.606 -75.53,-92.047 -84.49,-159 L 1806.28,182 c -37.92,0.664 -72.46,27.527 -71.82,64.48 1.06,60.282 28.22,111.352 107.36,187.774 l 33.64,32.48 c -37.97,53.188 -76.97,103.473 -110.03,159.489 -15.1,26.527 -24.41,50.035 -25.63,91.879 l 99.18,-1.739 c 26.26,-0.461 51.36,-10.625 78.15,-36.383 12.43,-11.89 31.44,-37.511 48.51,-62.128 16.12,-23.622 31.29,-46.258 38.88,-57.09 68.36,71.746 90.45,111.238 95.05,151.035 l 63.19,-1.109 c 47.65,-0.833 73.37,-31.434 72.72,-68.383 -0.51,-29.172 -17.74,-68.746 -57.48,-116.68 -21.87,-26.848 -51.55,-55.508 -82.27,-88.039 l 46.47,-67.922 c 56.9,-82.695 75.14,-96.637 128.36,-112.156 -1,-57.367 -43.36,-87.746 -107.53,-86.621 -76.81,1.343 -116.83,48.734 -155.71,105.824"
         style="fill:#3c83cd;fill-opacity:1;fill-rule:nonzero;stroke:none"
         id="path3032" /></g></g></svg>