<?xml version="1.0" encoding="UTF-8"?><!DOCTYPE svg PUBLIC "-//W3C//DTD SVG 1.1//EN" "http://www.w3.org/Graphics/SVG/1.1/DTD/svg11.dtd"><svg width="84" height="84" viewBox="0 0 84 84" xmlns="http://www.w3.org/2000/svg" xmlns:xlink="http://www.w3.org/1999/xlink"><svg width="28" height="28" viewBox="-2 -2 28 28" id="account"><path fill="#39434e" d="M12 4a4 4 0 0 1 4 4 4 4 0 0 1-4 4 4 4 0 0 1-4-4 4 4 0 0 1 4-4m0 10c4.42 0 8 1.79 8 4v2H4v-2c0-2.21 3.58-4 8-4z"/></svg><svg width="28" height="28" viewBox="-2 -2 28 28" id="apps" x="28"><path fill="#39434e" d="M16 20h4v-4h-4m0-2h4v-4h-4m-6-2h4V4h-4m6 4h4V4h-4m-6 10h4v-4h-4m-6 4h4v-4H4m0 10h4v-4H4m6 4h4v-4h-4M4 8h4V4H4v4z"/></svg><svg width="28" height="28" viewBox="-2 -2 28 28" id="database" y="28"><path fill="#39434e" d="M18 1H6a2 2 0 0 0-2 2v2a2 2 0 0 0 2 2h12a2 2 0 0 0 2-2V3a2 2 0 0 0-2-2M8 5H6V3h2v2m10 4H6a2 2 0 0 0-2 2v2a2 2 0 0 0 2 2h12a2 2 0 0 0 2-2v-2a2 2 0 0 0-2-2M8 13H6v-2h2v2m10 4H6a2 2 0 0 0-2 2v2a2 2 0 0 0 2 2h12a2 2 0 0 0 2-2v-2a2 2 0 0 0-2-2M8 21H6v-2h2v2z"/></svg><svg width="28" height="28" viewBox="-2 -2 28 28" id="directions" x="28" y="28"><path fill="#39434E" d="M14 14.5V12h-4v3H8v-4a1 1 0 0 1 1-1h5V7.5l3.5 3.5m4.21.29l-9-9h-.01c-.39-.39-1.02-.39-1.41 0l-9 9c-.39.39-.39 1.03 0 1.42l9 9c.39.38 1.02.39 1.42 0l9-9c.39-.39.39-1.03 0-1.42z"/></svg><svg width="28" height="28" viewBox="-2 -2 28 28" id="earth" x="56"><path fill="#39434e" d="M17.9 17.39c-.26-.8-1.01-1.39-1.9-1.39h-1v-3a1 1 0 0 0-1-1H8v-2h2a1 1 0 0 0 1-1V7h2a2 2 0 0 0 2-2v-.41c2.93 1.18 5 4.05 5 7.41 0 2.08-.8 3.97-2.1 5.39M11 19.93c-3.95-.49-7-3.85-7-7.93 0-.62.08-1.22.21-1.79L9 15v1a2 2 0 0 0 2 2m1-16A10 10 0 0 0 2 12a10 10 0 0 0 10 10 10 10 0 0 0 10-10A10 10 0 0 0 12 2z"/></svg><svg width="28" height="28" viewBox="-2 -2 28 28" id="logout" x="56" y="28"><path fill="#555" d="M17 17.25V14h-7v-4h7V6.75L22.25 12 17 17.25M13 2a2 2 0 0 1 2 2v4h-2V4H4v16h9v-4h2v4a2 2 0 0 1-2 2H4a2 2 0 0 1-2-2V4a2 2 0 0 1 2-2h9z"/></svg><svg width="28" height="28" viewBox="-2 -2 28 28" id="settings" y="56"><path fill="#39434E" d="M12 15.5A3.5 3.5 0 0 1 8.5 12 3.5 3.5 0 0 1 12 8.5a3.5 3.5 0 0 1 3.5 3.5 3.5 3.5 0 0 1-3.5 3.5m7.43-2.53c.04-.32.07-.64.07-.97 0-.33-.03-.66-.07-1l2.11-1.63c.19-.15.24-.42.12-.64l-2-3.46c-.12-.22-.39-.31-.61-.22l-2.49 1c-.52-.39-1.06-.73-1.69-.98l-.37-2.65c-.04-.24-.25-.42-.5-.42h-4c-.25 0-.46.18-.5.42l-.37 2.65c-.63.25-1.17.59-1.69.98l-2.49-1c-.22-.09-.49 0-.61.22l-2 3.46c-.13.22-.07.49.12.64L4.57 11c-.04.34-.07.67-.07 1 0 .33.03.65.07.97l-2.11 1.66c-.19.15-.25.42-.12.64l2 3.46c.12.22.39.3.61.22l2.49-1.01c.52.4 1.06.74 1.69.99l.37 2.65c.04.24.25.42.5.42h4c.25 0 .46-.18.5-.42l.37-2.65c.63-.26 1.17-.59 1.69-.99l2.49 1.01c.22.08.49 0 .61-.22l2-3.46c.12-.22.07-.49-.12-.64l-2.11-1.66z"/></svg></svg>