<?xml version="1.0" encoding="UTF-8" standalone="no"?><svg width="236" height="189" viewBox="0 0 236 189" xmlns="http://www.w3.org/2000/svg" xmlns:xlink="http://www.w3.org/1999/xlink"><svg width="123.75" height="84.38" viewBox="-10 -10 123.75 84.38" id="cloud"><g transform="matrix(.13 0 0 -.13 0 64.38)"><path d="M652.5 17.5c88.363 0 160 71.637 160 160 0 71.723-47.195 132.41-112.22 152.734C683.837 375.28 640.74 407.5 590 407.5c-8.773 0-17.297-1.035-25.523-2.86C530.723 460.235 469.79 497.5 400 497.5c-96.363 0-175.953-70.883-190.055-163.305-10.476 2.16-21.328 3.305-32.445 3.305-88.363 0-160-71.637-160-160s71.637-160 160-160h475" fill="#fff"/><path d="M652.5 17.5c88.363 0 160 71.637 160 160 0 71.723-47.195 132.41-112.22 152.734C683.837 375.28 640.74 407.5 590 407.5c-8.773 0-17.297-1.035-25.523-2.86C530.723 460.235 469.79 497.5 400 497.5c-96.363 0-175.953-70.883-190.055-163.305-10.476 2.16-21.328 3.305-32.445 3.305-88.363 0-160-71.637-160-160s71.637-160 160-160h475z" fill="none" stroke="#2f3a46" stroke-width="35" stroke-miterlimit="10"/></g></svg><svg width="111.38" height="83.76" viewBox="-10 -10 111.38 83.76" id="report" x="123.75"><g transform="matrix(.13 0 0 -.13 0 63.76)"><path d="M654.336 20H76.69C45.513 20 20 45.512 20 76.69v356.705c0 31.18 25.512 56.69 56.69 56.69h577.646c31.18 0 56.69-25.51 56.69-56.69V76.69c0-31.178-25.51-56.69-56.69-56.69" fill="#fff"/><path d="M654.336 20H76.69C45.513 20 20 45.512 20 76.69v356.705c0 31.18 25.512 56.69 56.69 56.69h577.646c31.18 0 56.69-25.51 56.69-56.69V76.69c0-31.178-25.51-56.69-56.69-56.69z" fill="none" stroke="#2f3a46" stroke-width="40" stroke-miterlimit="10"/><path d="M711.027 280.836l-130.773.62-61.336-87.206L384.32 328.668l-81.808-147.855h-138.98l-58.13 68.644L20 148.555" fill="#fff"/><path d="M711.027 280.836l-130.773.62-61.336-87.206L384.32 328.668l-81.808-147.855h-138.98l-58.13 68.644L20 148.555" fill="none" stroke="#2f3a46" stroke-width="40" stroke-linejoin="round" stroke-miterlimit="10"/></g></svg><svg width="88.91" height="103.98" viewBox="-10 -10 88.91 103.98" id="worker" y="84.38"><g transform="matrix(.13 0 0 -.13 0 83.97)"><path d="M207.605 654.992L197.31 411.098l34.97-1.473 9.59 227.13h67.52l9.598-227.13 34.973 1.473-7.925 187.468c50.8-20.578 112.9-62.414 119.664-145.187 1.866-23.048 6.12-43.44 39.277-59.552 2.382-1.164 5-1.762 7.652-1.762h3.628v-34.324c-15.906.227-39.656-.715-64.008-9.03-62.977-21.5-102.508-22.724-144.36-24.02-9.92-.305-19.86-.614-30.11-1.192-.74-.043-1.444-.207-2.155-.34-.512.094-1 .25-1.527.297-11.774 1.074-23.532 1.54-35.977 2.023-37.624 1.473-80.268 3.14-139.112 23.23-24.352 8.32-48.113 9.274-64.008 9.032v34.324h3.64c2.653 0 5.27.598 7.653 1.762 33.145 16.11 37.398 36.5 39.277 59.54 5.442 66.628 45.8 106.644 87.653 130.437 0 0-6.2 20.25 2.773 39.843 8.28 18.086 31.8 35.84 31.61 31.344" fill="#fff"/><path d="M490.996 269.723c-2.238-15.844-13.004-30.5-31.914-43.594-4.555-2.6-7.934-7.146-8.707-12.74C450.13 211.606 424.043 35 279.707 35h-8.156c-143.878 0-169.64 171.12-170.667 178.39-.78 5.645-4.196 10.223-8.81 12.805-18.737 13.008-29.46 27.547-31.772 43.243-3.484 23.726 12.805 44.285 13.22 44.804 1.164 1.406 1.984 2.96 2.636 4.563 3.84-.89 7.692-1.907 11.543-3.22 63.683-21.733 111.015-23.59 149.054-25.077 11.976-.47 23.293-.914 34.16-1.903.54-.05 1.078-.074 1.61-.074 1.074 0 2.124.115 3.148.298 1.004-.18 2.027-.297 3.078-.297.328 0 .664.01.996.03 9.945.557 19.59.854 29.227 1.15 42.59 1.317 86.632 2.677 154.586 25.876 3.85 1.32 7.713 2.336 11.553 3.223.664-1.63 1.504-3.208 2.688-4.634.17-.2 16.552-20.63 13.196-44.453zm42.762 157.343h-16.934c-14.51 7.813-15.02 14.094-16.242 29.157-8.898 108.898-94.934 158.382-156.14 180.023l-.79 18.746c-.394 9.367-8.105 16.762-17.484 16.762H225.094c-9.383 0-17.09-7.395-17.49-16.762L197.31 411.098l34.97-1.473 9.59 227.13h67.52l9.598-227.13 34.973 1.473-7.925 187.468c50.8-20.578 112.9-62.414 119.664-145.187 1.866-23.048 6.12-43.44 39.277-59.552 2.382-1.164 5-1.762 7.652-1.762h3.628v-34.324c-15.906.227-39.656-.715-64.008-9.03-62.977-21.5-102.508-22.724-144.36-24.02-9.92-.305-19.86-.614-30.11-1.192-.74-.043-1.444-.207-2.155-.34-.512.094-1 .25-1.527.297-11.774 1.074-23.532 1.54-35.977 2.023-37.624 1.473-80.268 3.14-139.112 23.23-24.352 8.32-48.113 9.274-64.008 9.032v34.324h3.64c2.653 0 5.27.598 7.653 1.762 33.145 16.11 37.398 36.5 39.277 59.54 5.442 66.628 45.8 106.644 87.653 130.437l2.773 39.843c-55.91-26.386-117.844-75.992-125.31-167.433-1.23-15.06-1.737-21.336-16.245-29.15H17.5c-9.664 0-17.5-7.835-17.5-17.5v-69.663c0-8.11 5.57-15.156 13.46-17.027 3.345-.79 6.33-.672 12.267-.43 3.125.13 7.14.282 11.77.31-7.122-12.958-15.282-33.857-11.892-57.927 3.434-24.375 17.65-45.867 42.016-64.062C75.114 163.026 116.474 0 271.55 0h8.157c155.094 0 196.45 163.06 203.93 200.777 24.367 18.192 38.578 39.684 42.01 64.06 3.396 24.065-4.764 44.964-11.877 57.917 4.617-.024 8.636-.18 11.76-.31 5.95-.24 8.93-.358 12.267.43 7.89 1.872 13.46 8.92 13.46 17.028v69.664c0 9.664-7.835 17.5-17.5 17.5" fill="#2f3a46"/><path d="M490.996 269.723c-2.238-15.844-13.004-30.5-31.914-43.594-4.555-2.6-7.934-7.146-8.707-12.74C450.13 211.606 424.043 35 279.707 35h-8.156c-143.878 0-169.64 171.12-170.667 178.39-.78 5.645-4.196 10.223-8.81 12.805-18.737 13.008-29.46 27.547-31.772 43.243-3.484 23.726 12.805 44.285 13.22 44.804 1.164 1.406 1.984 2.96 2.636 4.563 3.84-.89 7.692-1.907 11.543-3.22 63.683-21.733 111.015-23.59 149.054-25.077 11.976-.47 23.293-.914 34.16-1.903.54-.05 1.078-.074 1.61-.074 1.074 0 2.124.115 3.148.298 1.004-.18 2.027-.297 3.078-.297.328 0 .664.01.996.03 9.945.557 19.59.854 29.227 1.15 42.59 1.317 86.632 2.677 154.586 25.876 3.85 1.32 7.713 2.336 11.553 3.223.664-1.63 1.504-3.208 2.688-4.634.17-.2 16.552-20.63 13.196-44.453" fill="#fff"/><path d="M191.602 270.414c-12.434 0-22.5-10.06-22.5-22.508 0-12.402 10.066-22.492 22.5-22.492 12.43 0 22.5 10.09 22.5 22.492 0 12.45-10.07 22.508-22.5 22.508M359.668 270.414c-12.422 0-22.504-10.06-22.504-22.508 0-12.402 10.082-22.492 22.504-22.492 12.41 0 22.496 10.09 22.496 22.492 0 12.45-10.086 22.508-22.496 22.508M304.566 131.602c-18.664-7.723-39.21-7.723-57.87 0-8.923 3.695-19.173-.547-22.864-9.473-3.7-8.93.543-19.165 9.473-22.86 13.648-5.653 27.984-8.477 42.324-8.477 14.34 0 28.675 2.824 42.323 8.476 8.93 3.695 13.176 13.93 9.473 22.86-3.696 8.936-13.934 13.167-22.86 9.472" fill="#2f3a46"/></g></svg></svg>